<svg width="24" height="23" viewBox="0 0 24 23" fill="none" xmlns="http://www.w3.org/2000/svg">
<g id="bi:hand-index" clip-path="url(#clip0_2016_937)">
<path id="Vector" d="M4.27296 4.45593C4.53135 4.31354 4.83843 4.27495 5.12663 4.34866C5.41483 4.42237 5.66055 4.60233 5.80973 4.84897L10.4972 12.5984C10.5967 12.7628 10.7605 12.8828 10.9526 12.9319C11.1448 12.9811 11.3495 12.9554 11.5218 12.8604C11.694 12.7655 11.8197 12.6091 11.8712 12.4257C11.9227 12.2424 11.8957 12.047 11.7963 11.8825L9.89652 8.74185L10.0052 8.67532C10.408 8.43352 10.8267 8.2094 11.0855 8.12466C11.2798 8.06221 11.5394 8.03323 11.804 8.02962C11.9355 8.02657 12.1091 8.1045 12.2343 8.31157L13.7448 10.8087C13.8443 10.9732 14.0081 11.0931 14.2002 11.1423C14.3924 11.1914 14.5971 11.1657 14.7693 11.0708C14.9416 10.9758 15.0673 10.8195 15.1188 10.6361C15.1703 10.4527 15.1433 10.2573 15.0439 10.0929L13.8701 8.15243C13.9132 8.12255 13.9566 8.09312 14.0003 8.06415C14.3928 7.80818 14.7515 7.63368 14.95 7.60691C15.1378 7.57948 15.495 7.64881 15.9039 7.79216C16.0811 7.85321 16.2412 7.92037 16.3579 7.97013L17.3674 9.63905C17.4669 9.80347 17.6307 9.92345 17.8228 9.97259C18.015 10.0217 18.2197 9.996 18.3919 9.90107C18.5642 9.80614 18.6899 9.64978 18.7414 9.46639C18.7929 9.28301 18.7659 9.08761 18.6665 8.92318L17.9165 7.68327L18.3607 7.43845C18.5423 7.3384 18.7438 7.27579 18.9522 7.25464C19.1607 7.2335 19.3715 7.2543 19.571 7.31569C19.7705 7.37709 19.9544 7.47773 20.1106 7.6111C20.2669 7.74448 20.3921 7.90765 20.4783 8.09007L22.1625 11.6504C22.3787 12.1081 22.4916 12.6041 22.4939 13.1061L22.5133 17.1326C22.5139 17.2588 22.4795 17.3829 22.4137 17.4923C22.3479 17.6017 22.253 17.6926 22.1385 17.7557L13.8441 22.3265C13.7371 22.3854 13.6166 22.4182 13.4931 22.4219C13.3697 22.4256 13.2472 22.4001 13.1365 22.3478L9.66247 20.7078C9.34009 20.5558 9.06056 20.3323 8.84731 20.056L6.07039 16.4531C5.95894 16.3087 5.90829 16.1298 5.92844 15.9515C5.94859 15.7733 6.03807 15.6087 6.1792 15.4904L7.33214 14.5244L7.99964 15.628C8.0991 15.7924 8.26291 15.9124 8.45504 15.9615C8.64718 16.0106 8.85189 15.9849 9.02416 15.89C9.19642 15.7951 9.32212 15.6387 9.3736 15.4553C9.42508 15.2719 9.39813 15.0765 9.29868 14.9121L3.86118 5.92276C3.71199 5.67613 3.67157 5.38303 3.74879 5.10795C3.82601 4.83286 4.01456 4.59833 4.27296 4.45593Z" fill="white"/>
<path id="Vector_2" d="M4.27296 4.45581C4.53135 4.31342 4.83843 4.27483 5.12663 4.34854C5.41483 4.42225 5.66055 4.60221 5.80973 4.84885L10.4972 12.5983C10.5967 12.7627 10.7605 12.8827 10.9526 12.9318C11.1448 12.981 11.3495 12.9552 11.5218 12.8603C11.694 12.7654 11.8197 12.609 11.8712 12.4256C11.9227 12.2422 11.8957 12.0468 11.7963 11.8824L9.89652 8.74173L10.0052 8.6752C10.408 8.4334 10.8267 8.20928 11.0855 8.12454C11.2798 8.06209 11.5394 8.0331 11.804 8.02949C11.9355 8.02645 12.1091 8.10438 12.2343 8.31145L13.7448 10.8086C13.8443 10.973 14.0081 11.093 14.2002 11.1422C14.3924 11.1913 14.5971 11.1656 14.7693 11.0706C14.9416 10.9757 15.0673 10.8194 15.1188 10.636C15.1703 10.4526 15.1433 10.2572 15.0439 10.0928L13.8701 8.1523C13.9132 8.12243 13.9566 8.093 14.0003 8.06402C14.3928 7.80805 14.7515 7.63356 14.95 7.60679C15.1378 7.57935 15.495 7.64869 15.9039 7.79204C16.0811 7.85309 16.2412 7.92025 16.3579 7.97001L17.3674 9.63892C17.4669 9.80335 17.6307 9.92332 17.8228 9.97246C18.015 10.0216 18.2197 9.99588 18.3919 9.90095C18.5642 9.80602 18.6899 9.64966 18.7414 9.46627C18.7929 9.28288 18.7659 9.08748 18.6665 8.92306L17.9165 7.68315L18.3607 7.43833C18.5423 7.33828 18.7438 7.27566 18.9522 7.25452C19.1607 7.23338 19.3715 7.25417 19.571 7.31557C19.7705 7.37697 19.9544 7.4776 20.1106 7.61098C20.2669 7.74436 20.3921 7.90753 20.4783 8.08995L22.1625 11.6503C22.3787 12.108 22.4916 12.6039 22.4939 13.106L22.5133 17.1325C22.5139 17.2586 22.4795 17.3827 22.4137 17.4922C22.3479 17.6016 22.253 17.6925 22.1385 17.7556L13.8441 22.3264C13.7371 22.3853 13.6166 22.418 13.4931 22.4218C13.3697 22.4255 13.2472 22.4 13.1365 22.3477L9.66247 20.7077C9.34009 20.5557 9.06056 20.3322 8.84731 20.0559L6.07039 16.4529C5.95894 16.3086 5.90829 16.1297 5.92844 15.9514C5.94859 15.7732 6.03807 15.6086 6.1792 15.4903L7.33214 14.5243L7.99964 15.6278C8.0991 15.7923 8.26291 15.9122 8.45504 15.9614C8.64718 16.0105 8.85189 15.9848 9.02416 15.8899C9.19642 15.7949 9.32212 15.6386 9.3736 15.4552C9.42508 15.2718 9.39813 15.0764 9.29868 14.912L3.86118 5.92264C3.71199 5.67601 3.67157 5.38291 3.74879 5.10782C3.82601 4.83274 4.01456 4.5982 4.27296 4.45581ZM9.14577 7.50058L7.10877 4.13298C6.76068 3.55751 6.18733 3.13758 5.51486 2.9656C4.84238 2.79361 4.12588 2.88365 3.52296 3.2159C2.92003 3.54815 2.48009 4.0954 2.2999 4.73727C2.11971 5.37913 2.21404 6.06302 2.56214 6.6385L6.56714 13.2596L5.18829 14.4162C4.76579 14.771 4.49788 15.264 4.43742 15.7979C4.37695 16.3319 4.52831 16.8682 4.86164 17.3009L7.63931 20.9051C7.99473 21.3656 8.46061 21.7381 8.99792 21.9915L12.4719 23.6314C12.804 23.7881 13.1714 23.8642 13.5416 23.8528C13.9118 23.8415 14.2734 23.743 14.5941 23.5663L22.8885 18.9955C23.2319 18.8061 23.5168 18.5335 23.7142 18.2052C23.9116 17.8769 24.0147 17.5046 24.0128 17.1261L23.9943 13.1008C23.991 12.3972 23.8326 11.7021 23.5293 11.0608L21.8451 7.50041C21.6727 7.13578 21.4221 6.80967 21.1096 6.5431C20.797 6.27654 20.4295 6.07545 20.0305 5.95278C19.6316 5.83011 19.2101 5.78859 18.7934 5.8309C18.3766 5.87321 17.9737 5.99841 17.6107 6.19842L16.856 6.61433C16.7114 6.55407 16.5649 6.49807 16.4167 6.44643C15.9968 6.29922 15.3282 6.10725 14.7365 6.18861C14.1542 6.26816 13.5385 6.63056 13.1512 6.88367L12.9888 6.99304C12.6461 6.73135 12.2186 6.59164 11.7798 6.5979C11.3814 6.59808 10.9854 6.65581 10.6051 6.76912C10.1559 6.91416 9.60163 7.22622 9.20663 7.46374L9.14577 7.50058Z" fill="black"/>
</g>
<defs>
<clipPath id="clip0_2016_937">
<rect width="24" height="22.9076" fill="white"/>
</clipPath>
</defs>
</svg>
