<svg width="24" height="25" viewBox="0 0 24 25" fill="none" xmlns="http://www.w3.org/2000/svg">
<g id="Home Icon">
<path id="Shape" d="M10.5495 3.42408C11.3874 2.73543 12.6126 2.73543 13.4505 3.42408L20.2005 8.9717C20.7074 9.38836 21 10.0018 21 10.6481V20.202C21 21.144 20.2165 21.9076 19.25 21.9076H15.75C14.7835 21.9076 14 21.144 14 20.202V14.8416C14 14.7071 13.8881 14.598 13.75 14.598H10.25C10.1119 14.598 10 14.7071 10 14.8416V20.202C10 21.144 9.2165 21.9076 8.25 21.9076H4.75C3.7835 21.9076 3 21.144 3 20.202V10.6481C3 10.0018 3.29255 9.38836 3.79952 8.9717L10.5495 3.42408ZM12.4835 4.54168C12.2042 4.31213 11.7958 4.31213 11.5165 4.54168L4.76651 10.0893C4.59752 10.2282 4.5 10.4326 4.5 10.6481V20.202C4.5 20.3366 4.61193 20.4457 4.75 20.4457H8.25C8.38807 20.4457 8.5 20.3366 8.5 20.202V14.8416C8.5 13.8997 9.2835 13.1361 10.25 13.1361H13.75C14.7165 13.1361 15.5 13.8997 15.5 14.8416V20.202C15.5 20.3366 15.6119 20.4457 15.75 20.4457H19.25C19.3881 20.4457 19.5 20.3366 19.5 20.202V10.6481C19.5 10.4326 19.4025 10.2282 19.2335 10.0893L12.4835 4.54168Z" fill="#27292C"/>
</g>
</svg>
