<svg width="24" height="25" viewBox="0 0 24 25" fill="none" xmlns="http://www.w3.org/2000/svg">
<g id="Past Trips Icon">
<path id="Shape" d="M9.46921 10.5508L8.76898 4.67599L8.76712 4.6024C8.76712 3.71378 9.48749 2.99341 10.3761 2.99341C11.1789 2.99341 11.9218 3.41307 12.3545 4.12782L12.4408 4.28849L15.3857 10.3775L19.3428 10.2617C20.7765 10.2196 21.9728 11.3477 22.0151 12.7923L22.016 12.8575C22.016 14.2919 20.8532 15.4547 19.3969 15.4544L15.4327 15.3383L12.4409 21.5265C12.058 22.3185 11.2558 22.8217 10.3761 22.8217C9.48749 22.8217 8.76712 22.1014 8.76745 21.1904L8.77396 21.0724L9.48083 15.1641L7.34875 15.1019L7.07985 15.8376C6.79933 16.6049 6.06936 17.1152 5.25238 17.1152C4.37644 17.1152 3.66636 16.4052 3.66636 15.5289L3.66672 14.7693L3.51168 14.737C2.62169 14.5512 1.98401 13.7667 1.98401 12.8575C1.98401 11.9482 2.62216 11.1637 3.51223 10.9787L3.66672 10.9465L3.66636 10.1858C3.66636 9.3838 4.26448 8.71098 5.10101 8.60777L5.25238 8.59981C5.99732 8.59981 6.67525 9.02498 7.01684 9.72685L7.07966 9.87699L7.34929 10.6129L9.46921 10.5508ZM10.3761 4.49341C10.3159 4.49341 10.2671 4.54221 10.2668 4.58003L11.1532 12.002L6.31273 12.1439L5.68532 10.4287L5.65277 10.3496C5.57841 10.1973 5.42298 10.0998 5.29887 10.0984L5.24064 10.1005C5.19905 10.1057 5.16636 10.1425 5.16636 10.1855L5.1673 12.1663L3.81776 12.4472C3.62336 12.4877 3.48401 12.659 3.48401 12.8575C3.48401 13.0564 3.6235 13.228 3.81779 13.2686L5.1673 13.5495L5.16636 15.5292C5.16636 15.5767 5.20487 15.6152 5.25238 15.6152C5.43954 15.6152 5.60677 15.4983 5.67102 15.3226L6.31127 13.5709L11.1652 13.7127L10.2683 21.1839L10.2671 21.2127C10.2671 21.2729 10.3159 21.3217 10.3761 21.3217C10.6804 21.3217 10.9579 21.1476 11.0904 20.8736L14.5053 13.8105L19.4189 13.9547C20.0248 13.9547 20.5161 13.4635 20.5161 12.8685L20.5155 12.8253C20.4978 12.2198 19.9924 11.7433 19.3868 11.7611L14.4583 11.9053L11.1066 4.97314L11.0542 4.87494C10.9109 4.63864 10.6538 4.49341 10.3761 4.49341Z" fill="black"/>
</g>
</svg>
