<svg width="24" height="25" viewBox="0 0 24 25" fill="none" xmlns="http://www.w3.org/2000/svg">
<g id="Support Icon">
<path id="Shape" d="M12 2.90759C17.5228 2.90759 22 7.38436 22 12.9067C22 18.4291 17.5228 22.9059 12 22.9059C10.3817 22.9059 8.81782 22.5205 7.41286 21.794L3.58704 22.8612C2.92212 23.0469 2.23258 22.6584 2.04691 21.9935C1.98546 21.7735 1.98549 21.5409 2.04695 21.3211L3.11461 17.4986C2.38637 16.0924 2 14.5269 2 12.9067C2 7.38436 6.47715 2.90759 12 2.90759ZM12 4.40746C7.30558 4.40746 3.5 8.21272 3.5 12.9067C3.5 14.3762 3.87277 15.7899 4.57303 17.0438L4.72368 17.3136L3.61096 21.2974L7.59755 20.1853L7.86709 20.3356C9.12006 21.0342 10.5322 21.406 12 21.406C16.6944 21.406 20.5 17.6008 20.5 12.9067C20.5 8.21272 16.6944 4.40746 12 4.40746ZM12 16.4064C12.5523 16.4064 13 16.8541 13 17.4064C13 17.9586 12.5523 18.4063 12 18.4063C11.4477 18.4063 11 17.9586 11 17.4064C11 16.8541 11.4477 16.4064 12 16.4064ZM12 7.65719C13.5188 7.65719 14.75 8.8883 14.75 10.4069C14.75 11.4176 14.4525 11.9809 13.6989 12.7653L13.5303 12.9371C12.9084 13.5589 12.75 13.8229 12.75 14.4066C12.75 14.8208 12.4142 15.1565 12 15.1565C11.5858 15.1565 11.25 14.8208 11.25 14.4066C11.25 13.3959 11.5475 12.8327 12.3011 12.0482L12.4697 11.8765C13.0916 11.2547 13.25 10.9906 13.25 10.4069C13.25 9.71665 12.6904 9.15706 12 9.15706C11.3528 9.15706 10.8205 9.64889 10.7565 10.2792L10.75 10.4069C10.75 10.8211 10.4142 11.1569 10 11.1569C9.58579 11.1569 9.25 10.8211 9.25 10.4069C9.25 8.8883 10.4812 7.65719 12 7.65719Z" fill="black"/>
</g>
</svg>
